<?xml version="1.0" encoding="UTF-8"?>
<!DOCTYPE svg PUBLIC "-//W3C//DTD SVG 1.1//EN" "http://www.w3.org/Graphics/SVG/1.1/DTD/svg11.dtd">
<svg version="1.2" width="107mm" height="46.8mm" viewBox="0 0 10700 4680" preserveAspectRatio="xMidYMid" fill-rule="evenodd" stroke-width="28.222" stroke-linejoin="round" xmlns="http://www.w3.org/2000/svg" xmlns:ooo="http://xml.openoffice.org/svg/export" xmlns:xlink="http://www.w3.org/1999/xlink" xmlns:presentation="http://sun.com/xmlns/staroffice/presentation" xmlns:smil="http://www.w3.org/2001/SMIL20/" xmlns:anim="urn:oasis:names:tc:opendocument:xmlns:animation:1.0" xml:space="preserve">
 <defs class="ClipPathGroup">
  <clipPath id="presentation_clip_path" clipPathUnits="userSpaceOnUse">
   <rect x="0" y="0" width="10700" height="4680"/>
  </clipPath>
  <clipPath id="presentation_clip_path_shrink" clipPathUnits="userSpaceOnUse">
   <rect x="10" y="4" width="10679" height="4671"/>
  </clipPath>
 </defs>
 <defs class="TextShapeIndex">
  <g ooo:slide="id1" ooo:id-list="id3 id4 id5 id6"/>
 </defs>
 <defs class="EmbeddedBulletChars">
  <g id="bullet-char-template-57356" transform="scale(0.00048828125,-0.00048828125)">
   <path d="M 580,1141 L 1163,571 580,0 -4,571 580,1141 Z"/>
  </g>
  <g id="bullet-char-template-57354" transform="scale(0.00048828125,-0.00048828125)">
   <path d="M 8,1128 L 1137,1128 1137,0 8,0 8,1128 Z"/>
  </g>
  <g id="bullet-char-template-10146" transform="scale(0.00048828125,-0.00048828125)">
   <path d="M 174,0 L 602,739 174,1481 1456,739 174,0 Z M 1358,739 L 309,1346 659,739 1358,739 Z"/>
  </g>
  <g id="bullet-char-template-10132" transform="scale(0.00048828125,-0.00048828125)">
   <path d="M 2015,739 L 1276,0 717,0 1260,543 174,543 174,936 1260,936 717,1481 1274,1481 2015,739 Z"/>
  </g>
  <g id="bullet-char-template-10007" transform="scale(0.00048828125,-0.00048828125)">
   <path d="M 0,-2 C -7,14 -16,27 -25,37 L 356,567 C 262,823 215,952 215,954 215,979 228,992 255,992 264,992 276,990 289,987 310,991 331,999 354,1012 L 381,999 492,748 772,1049 836,1024 860,1049 C 881,1039 901,1025 922,1006 886,937 835,863 770,784 769,783 710,716 594,584 L 774,223 C 774,196 753,168 711,139 L 727,119 C 717,90 699,76 672,76 641,76 570,178 457,381 L 164,-76 C 142,-110 111,-127 72,-127 30,-127 9,-110 8,-76 1,-67 -2,-52 -2,-32 -2,-23 -1,-13 0,-2 Z"/>
  </g>
  <g id="bullet-char-template-10004" transform="scale(0.00048828125,-0.00048828125)">
   <path d="M 285,-33 C 182,-33 111,30 74,156 52,228 41,333 41,471 41,549 55,616 82,672 116,743 169,778 240,778 293,778 328,747 346,684 L 369,508 C 377,444 397,411 428,410 L 1163,1116 C 1174,1127 1196,1133 1229,1133 1271,1133 1292,1118 1292,1087 L 1292,965 C 1292,929 1282,901 1262,881 L 442,47 C 390,-6 338,-33 285,-33 Z"/>
  </g>
  <g id="bullet-char-template-9679" transform="scale(0.00048828125,-0.00048828125)">
   <path d="M 813,0 C 632,0 489,54 383,161 276,268 223,411 223,592 223,773 276,916 383,1023 489,1130 632,1184 813,1184 992,1184 1136,1130 1245,1023 1353,916 1407,772 1407,592 1407,412 1353,268 1245,161 1136,54 992,0 813,0 Z"/>
  </g>
  <g id="bullet-char-template-8226" transform="scale(0.00048828125,-0.00048828125)">
   <path d="M 346,457 C 273,457 209,483 155,535 101,586 74,649 74,723 74,796 101,859 155,911 209,963 273,989 346,989 419,989 480,963 531,910 582,859 608,796 608,723 608,648 583,586 532,535 482,483 420,457 346,457 Z"/>
  </g>
  <g id="bullet-char-template-8211" transform="scale(0.00048828125,-0.00048828125)">
   <path d="M -4,459 L 1135,459 1135,606 -4,606 -4,459 Z"/>
  </g>
  <g id="bullet-char-template-61548" transform="scale(0.00048828125,-0.00048828125)">
   <path d="M 173,740 C 173,903 231,1043 346,1159 462,1274 601,1332 765,1332 928,1332 1067,1274 1183,1159 1299,1043 1357,903 1357,740 1357,577 1299,437 1183,322 1067,206 928,148 765,148 601,148 462,206 346,322 231,437 173,577 173,740 Z"/>
  </g>
 </defs>
 <g>
  <g id="id2" class="Master_Slide">
   <g id="bg-id2" class="Background"/>
   <g id="bo-id2" class="BackgroundObjects"/>
  </g>
 </g>
 <g class="SlideGroup">
  <g>
   <g id="container-id1">
    <g id="id1" class="Slide" clip-path="url(#presentation_clip_path)">
     <g class="Page">
      <g class="com.sun.star.drawing.CustomShape">
       <g id="id3">
        <rect class="BoundingBox" stroke="none" fill="none" x="3557" y="102" width="7035" height="3181"/>
        <path fill="rgb(255,0,0)" stroke="none" d="M 7074,3281 L 3558,3281 3558,103 10590,103 10590,3281 7074,3281 Z"/>
        <path fill="none" stroke="rgb(255,0,0)" d="M 7074,3281 L 3558,3281 3558,103 10590,103 10590,3281 7074,3281 Z"/>
       </g>
      </g>
      <g class="com.sun.star.drawing.CustomShape">
       <g id="id4">
        <rect class="BoundingBox" stroke="none" fill="none" x="3558" y="103" width="7033" height="3179"/>
        <g>
         <defs>
          <linearGradient id="gradient1" x1="9920" y1="-696" x2="4228" y2="4080" gradientUnits="userSpaceOnUse">
           <stop offset="0" style="stop-color:rgb(33,64,154)"/>
           <stop offset="1" style="stop-color:rgb(255,0,0)"/>
          </linearGradient>
         </defs>
         <path style="fill:url(#gradient1)" d="M 7074,3281 L 3558,3281 3558,103 10590,103 10590,3281 7074,3281 Z"/>
        </g>
       </g>
      </g>
      <g class="com.sun.star.drawing.CustomShape">
       <g id="id5">
        <rect class="BoundingBox" stroke="none" fill="none" x="95" y="1365" width="7025" height="3214"/>
        <g>
         <defs>
          <linearGradient id="gradient2" x1="318" y1="4947" x2="6897" y2="994" gradientUnits="userSpaceOnUse">
           <stop offset="0" style="stop-color:rgb(33,64,154)"/>
           <stop offset="1" style="stop-color:rgb(255,0,0)"/>
          </linearGradient>
         </defs>
         <path style="fill:url(#gradient2)" d="M 3607,4578 L 95,4578 95,1365 7119,1365 7119,4578 3607,4578 Z"/>
        </g>
       </g>
      </g>
      <g class="Group">
       <g class="Graphic">
        <g id="id6">
         <rect class="BoundingBox" stroke="none" fill="none" x="182" y="1269" width="10253" height="2175"/>
         <defs>
          <clipPath id="clip_path_1" clipPathUnits="userSpaceOnUse">
           <path d="M 182,1269 L 10434,1269 10434,3443 182,3443 182,1269 Z"/>
          </clipPath>
         </defs>
         <g clip-path="url(#clip_path_1)">
          <path fill="rgb(0,0,0)" stroke="none" d="M 927,1337 C 899,1269 889,1269 818,1269 L 296,1269 296,1365 370,1365 C 608,1365 615,1399 615,1510 L 615,3051 C 615,3135 615,3280 296,3280 L 296,3375 C 404,3372 556,3366 658,3366 760,3366 911,3372 1019,3375 L 1019,3280 C 701,3280 701,3135 701,3051 L 701,1389 704,1389 1449,3307 C 1464,3347 1480,3375 1510,3375 1544,3375 1554,3350 1566,3317 L 2326,1365 2329,1365 2329,3135 C 2329,3246 2323,3280 2085,3280 L 2011,3280 2011,3375 C 2125,3366 2335,3366 2456,3366 2576,3366 2783,3366 2898,3375 L 2898,3280 2824,3280 C 2586,3280 2579,3246 2579,3135 L 2579,1510 C 2579,1399 2586,1365 2824,1365 L 2898,1365 2898,1269 2376,1269 C 2295,1269 2295,1272 2274,1328 L 1597,3064 927,1337 927,1337 Z"/>
          <path fill="rgb(0,0,0)" stroke="none" d="M 4812,2663 C 4812,3101 4512,3347 4219,3347 4074,3347 3709,3270 3709,2684 L 3709,1510 C 3709,1399 3715,1365 3953,1365 L 4027,1365 4027,1269 C 3919,1278 3691,1278 3573,1278 3456,1278 3224,1278 3116,1269 L 3116,1365 3190,1365 C 3428,1365 3434,1399 3434,1510 L 3434,2672 C 3434,3107 3793,3443 4213,3443 4568,3443 4846,3156 4899,2805 4908,2743 4908,2715 4908,2592 L 4908,1605 C 4908,1503 4908,1365 5226,1365 L 5226,1269 C 5115,1272 4967,1278 4862,1278 4753,1278 4605,1272 4494,1269 L 4494,1365 C 4812,1365 4812,1510 4812,1593 L 4812,2663 4812,2663 Z"/>
          <path fill="rgb(0,0,0)" stroke="none" d="M 6026,1510 C 6026,1399 6036,1365 6280,1365 L 6360,1365 6360,1269 C 6252,1278 6008,1278 5890,1278 5770,1278 5526,1278 5418,1269 L 5418,1365 5498,1365 C 5742,1365 5751,1399 5751,1510 L 5751,3135 C 5751,3246 5742,3280 5498,3280 L 5418,3280 5418,3375 C 5526,3366 5770,3366 5887,3366 6008,3366 6252,3366 6360,3375 L 6360,3280 6280,3280 C 6036,3280 6026,3246 6026,3135 L 6026,1510 6026,1510 Z"/>
          <path fill="rgb(0,0,0)" stroke="none" d="M 7148,2401 L 7670,2401 C 8041,2401 8375,2151 8375,1843 8375,1540 8069,1269 7646,1269 L 6555,1269 6555,1365 6629,1365 C 6867,1365 6873,1399 6873,1510 L 6873,3135 C 6873,3246 6867,3280 6629,3280 L 6555,3280 6555,3375 C 6663,3366 6892,3366 7009,3366 7127,3366 7358,3366 7466,3375 L 7466,3280 7392,3280 C 7154,3280 7148,3246 7148,3135 L 7148,2401 7148,2401 Z M 7139,2321 L 7139,1488 C 7139,1386 7145,1365 7290,1365 L 7565,1365 C 8056,1365 8056,1691 8056,1843 8056,1987 8056,2321 7565,2321 L 7139,2321 7139,2321 Z"/>
          <path fill="rgb(0,0,0)" stroke="none" d="M 10347,1278 L 8651,1278 8651,1374 8726,1374 C 8963,1374 8970,1408 8970,1519 L 8970,3135 C 8970,3246 8963,3280 8726,3280 L 8651,3280 8651,3375 C 8759,3366 9000,3366 9121,3366 9248,3366 9529,3366 9640,3375 L 9640,3280 9538,3280 C 9245,3280 9245,3239 9245,3132 L 9245,2373 9510,2373 C 9807,2373 9838,2472 9838,2734 L 9915,2734 9915,1917 9838,1917 C 9838,2176 9807,2277 9510,2277 L 9245,2277 9245,1497 C 9245,1395 9251,1374 9396,1374 L 9767,1374 C 10230,1374 10307,1547 10357,1972 L 10434,1972 10347,1278 10347,1278 Z"/>
         </g>
        </g>
       </g>
      </g>
     </g>
    </g>
   </g>
  </g>
 </g>
</svg>